<?xml version="1.0" encoding="utf-8"?>
<!-- Generator: Adobe Illustrator 15.1.0, SVG Export Plug-In . SVG Version: 6.00 Build 0)  -->
<!DOCTYPE svg PUBLIC "-//W3C//DTD SVG 1.1//EN" "http://www.w3.org/Graphics/SVG/1.1/DTD/svg11.dtd">
<svg version="1.1" xmlns="http://www.w3.org/2000/svg" xmlns:xlink="http://www.w3.org/1999/xlink" x="0px" y="0px" width="360px"
	 height="360px" viewBox="0 0 360 360" enable-background="new 0 0 360 360" xml:space="preserve">
<g id="hint_2_">
	<g id="hint">
		<g>
			<path fill-rule="evenodd" clip-rule="evenodd" d="M250.286,165h-140v20h140V165z M250.286,125h-140v20h140V125z M70.067,85
				v139.833h120.66l49.56,49.56V275h20v-50.167h29.781V85H70.067z M270.286,205h-30v41.108L199.178,205H90.286v-0.167h-0.219V105
				h180.219V205z"/>
		</g>
	</g>
</g>
<g id="file_1_" display="none">
	<g id="Фигура_1" display="inline">
		<g>
			<path fill-rule="evenodd" clip-rule="evenodd" d="M229.781,49.833h-160v260h220v-200L229.781,49.833z M229.781,78.117
				l31.716,31.716h-31.716V78.117z M269.781,289.833h-180v-220h120v60h60V289.833z"/>
		</g>
	</g>
</g>
<g id="doc_1_" display="none">
	<g id="Фигура_2" display="inline">
		<g>
			<path fill-rule="evenodd" clip-rule="evenodd" d="M109.924,209.786h140v-20h-140V209.786z M109.924,249.786h140v-20h-140V249.786
				z M109.924,169.786h120v-20h-120V169.786z M229.924,49.786h-160v260h220v-200L229.924,49.786z M229.924,78.07l31.716,31.716
				h-31.716V78.07z M269.924,289.786h-180v-220h120v60h60V289.786z"/>
		</g>
	</g>
</g>
<g id="file_add_2_" display="none">
	<g id="file_add" display="inline">
		<g>
			<path fill-rule="evenodd" clip-rule="evenodd" d="M189.881,194.794v120h120v-120H189.881z M299.881,304.794h-99.999v-100h99.999
				V304.794z M69.881,64.794h120v60h60v60h20v-80l-60-60h-160v260h130v-20h-110V64.794z M209.881,73.078l31.716,31.716h-31.716
				V73.078z M239.881,294.794h19.994v-30.006h30.006v-19.994h-30.006v-30h-19.994v30h-30v19.994h30V294.794z"/>
		</g>
	</g>
</g>
<g id="link_2_" display="none">
	<g id="link" display="inline">
		<g>
			<path fill-rule="evenodd" clip-rule="evenodd" d="M177.35,187.23l-9.9,9.899l4.95,4.95l-69.296,69.296l-29.698-29.698
				l69.296-69.297l4.95,4.95l9.899-9.899l-12.375-12.375c-1.367-1.366-3.583-1.366-4.95,0l-84.146,84.146
				c-1.367,1.366-1.367,3.582,0,4.949l44.548,44.548c1.367,1.367,3.583,1.367,4.95,0l84.146-84.146c1.366-1.367,1.366-3.583,0-4.95
				L177.35,187.23z M293.669,95.66l-44.548-44.548c-1.367-1.367-3.583-1.367-4.949,0l-84.146,84.146
				c-1.367,1.367-1.367,3.583,0,4.95l12.374,12.374l9.9-9.899l-4.95-4.95l69.296-69.296l29.698,29.698l-69.296,69.297l-4.95-4.95
				l-9.899,9.899l12.374,12.375c1.367,1.366,3.583,1.366,4.95,0l84.146-84.146C295.036,99.243,295.036,97.027,293.669,95.66z
				 M140.227,199.604l4.95,4.95c1.367,1.366,3.583,1.366,4.95,0l59.397-59.397c1.366-1.366,1.366-3.583,0-4.949l-4.95-4.95
				c-1.366-1.366-3.583-1.366-4.95,0l-59.396,59.397C138.86,196.021,138.86,198.238,140.227,199.604z"/>
		</g>
	</g>
</g>
<g id="link_add_2_" display="none">
	<g id="link_add" display="inline">
		<g>
			<path fill-rule="evenodd" clip-rule="evenodd" d="M172.4,202.08l-69.296,69.296l-29.698-29.698l69.296-69.297l4.95,4.95
				l9.899-9.899l-12.375-12.375c-1.367-1.366-3.583-1.366-4.95,0l-84.146,84.146c-1.367,1.366-1.367,3.582,0,4.949l44.548,44.548
				c1.367,1.367,3.583,1.367,4.95,0l69.296-69.296v-29.699l-7.425,7.425L172.4,202.08z M209.523,140.208l-4.95-4.95
				c-1.366-1.366-3.583-1.366-4.95,0l-59.396,59.397c-1.367,1.366-1.367,3.583,0,4.949l4.95,4.95c1.367,1.366,3.583,1.366,4.95,0
				l59.397-59.397C210.89,143.791,210.89,141.574,209.523,140.208z M172.4,152.582l9.9-9.899l-4.95-4.95l69.296-69.296
				l29.698,29.698l-69.296,69.297l-4.95-4.95l-9.899,9.899l7.524,7.525h14.649l79.296-79.297c1.367-1.366,1.367-3.582,0-4.949
				l-44.548-44.548c-1.367-1.367-3.583-1.367-4.949,0l-84.146,84.146c-1.367,1.367-1.367,3.583,0,4.95L172.4,152.582z
				 M234.875,289.906h19.994V259.9h30.006v-19.994h-30.006v-30h-19.994v30h-30V259.9h30V289.906z M184.875,189.906v120h120v-120
				H184.875z M294.874,299.906h-99.999v-100h99.999V299.906z"/>
		</g>
	</g>
</g>
<g id="refresh_2_" display="none">
	<g id="refresh" display="inline">
		<g>
			<path fill-rule="evenodd" clip-rule="evenodd" d="M115.461,244.469c-35.594-35.595-35.569-93.328,0.055-128.953
				c0.141-0.141,0.288-0.271,0.43-0.409l13.888,13.888l14-56l-56,14l14.909,14.909c-0.141,0.14-0.287,0.271-0.428,0.412
				c-42.921,42.921-42.951,112.48-0.066,155.364c28.18,28.181,67.878,37.827,103.967,28.952l5.285-21.141
				C179.154,277.419,141.422,270.43,115.461,244.469z M257.68,102.249c-28.592-28.592-69.035-38.08-105.542-28.526l-5.332,21.328
				c32.702-12.773,71.267-5.986,97.664,20.41c35.453,35.453,35.558,92.865,0.354,128.522l-15.566-15.567l-14,56l56-14
				l-13.232-13.232C300.522,214.229,300.424,144.993,257.68,102.249z"/>
		</g>
	</g>
</g>
<g id="trash_2_" display="none">
	<g id="trash" display="inline">
		<g>
			<path fill-rule="evenodd" clip-rule="evenodd" d="M232.944,275.116H126.677l-25.979-160H80.436l29.226,180h140.296l29.227-180
				h-20.262L232.944,275.116z M274.92,84.929h-15v-5c0-2.762-2.239-5-5-5h-35v-5c0-2.762-2.239-5-5-5h-70c-2.761,0-5,2.238-5,5v5
				h-35c-2.761,0-5,2.238-5,5v5h-15c-2.761,0-5,2.238-5,5v10c0,2.762,2.239,5,5,5h190c2.761,0,5-2.238,5-5v-10
				C279.92,87.167,277.681,84.929,274.92,84.929z M139.919,264.929h20v-20h-20V264.929z M169.919,264.929h20v-20h-20V264.929z
				 M199.92,264.929h20v-20h-20V264.929z M169.919,234.929h20v-20h-20V234.929z M189.92,184.929h-20v20h20V184.929z
				 M139.919,234.929h20v-20h-20V234.929z M159.919,184.929h-20v20h20V184.929z M219.92,184.929h-20v20h20V184.929z M199.92,234.929
				h20v-20h-20V234.929z"/>
		</g>
	</g>
</g>
<g id="doc_x5F_shilded_2_" display="none">
	<g id="doc_x5F_shilded" display="inline">
		<g>
			<path fill-rule="evenodd" clip-rule="evenodd" d="M249.948,159.958h-200v100h200V159.958z M249.948,49.958h-160v100h20v-80h120
				v60h60v160h-180v-20h-20v40h220v-200L249.948,49.958z M249.948,109.958V78.242l31.716,31.716H249.948z"/>
		</g>
	</g>
</g>
<g id="doc_x5F_rss_2_" display="none">
	<g id="doc_x5F_rss" display="inline">
		<g>
			<path fill-rule="evenodd" clip-rule="evenodd" d="M250,160H50v100h200V160z M99.998,220H90v20H80v-60h29.986v10H90v20h9.998V220z
				 M109.998,230H100v-10h9.998V230z M119.998,240H110v-10h9.998V240z M120,210h-20v-10h10v-10h10V210z M139.998,230H130v-10h9.998
				V230z M139.998,200H130v-10h9.998V200z M159.986,240H140v-10h19.986V240z M159.986,210H140v-10h19.986V210z M159.986,190H140v-10
				h19.986V190z M169.998,230H160v-20h9.998V230z M189.998,230H180v-10h9.998V230z M189.998,200H180v-10h9.998V200z M209.986,240
				H190v-10h19.986V240z M209.986,210H190v-10h19.986V210z M209.986,190H190v-10h19.986V190z M219.997,230H210v-20h9.997V230z
				 M250,50H90v100h20V70h120v60h60v160H110v-20H90v40h220V110L250,50z M250,110V78.284L281.716,110H250z"/>
		</g>
	</g>
</g>
<g id="doc_x5F_txt_2_" display="none">
	<g id="doc_x5F_txt" display="inline">
		<g>
			<path fill-rule="evenodd" clip-rule="evenodd" d="M249.948,49.958h-160v100h20v-80h120v60h60v160h-180v-20h-20v40h220v-200
				L249.948,49.958z M249.948,109.958V78.242l31.716,31.716H249.948z M249.948,159.958h-200v100h200V159.958z M120,190h-0.052v9.944
				h-10V190h-10v49.958h-10V190h-10v9.944h-10v-19.986h50V180H120V190z M139.945,239.958h-9.998v-10h9.998V239.958z
				 M139.945,189.958h-9.998v-10h9.998V189.958z M149.945,229.958h-9.998v-10h9.998V229.958z M149.945,199.958h-9.998v-10h9.998
				V199.958z M159.945,219.958h-9.998v-20h9.998V219.958z M169.945,229.958h-9.998v-10h9.998V229.958z M169.945,199.958h-9.998v-10
				h9.998V199.958z M179.945,239.958h-9.998v-10h9.998V239.958z M179.945,189.958h-9.998v-10h9.998V189.958z M240,190h-0.052v9.944
				h-10V190h-10v49.958h-10V190h-10.001v9.944h-10v-19.986h50.001V180H240V190z"/>
		</g>
	</g>
</g>
<g id="doc_x5F_xml_2_" display="none">
	<g id="doc_x5F_xml" display="inline">
		<g>
			<path fill-rule="evenodd" clip-rule="evenodd" d="M249.875,49.7h-160v100h20v-80h120v60h60v160h-180v-20h-20v40h220v-200
				L249.875,49.7z M249.875,109.7V77.984l31.716,31.716H249.875z M249.875,159.7h-200v100h200V159.7z M79.873,219.7h-9.998v-10
				h9.998V219.7z M89.873,229.7h-9.998v-10h9.998V229.7z M89.873,209.7h-9.998v-10h9.998V209.7z M99.873,239.7h-9.998v-10h9.998
				V239.7z M99.873,199.7h-9.998v-10h9.998V199.7z M139.875,239.7h-9.998v-10h9.998V239.7z M149.875,229.7h-9.998v-10h9.998V229.7z
				 M159.875,219.7h-9.998v-10h9.998V219.7z M169.875,209.7h-9.998v-10h9.998V209.7z M179.875,199.7h-9.998v-10h9.998V199.7z
				 M189.875,189.7h-9.998v-10h9.998V189.7z M209.875,239.7h-9.998v-10h9.998V239.7z M209.875,199.7h-9.998v-10h9.998V199.7z
				 M219.875,229.7h-9.997v-10h9.997V229.7z M219.875,209.7h-9.997v-10h9.997V209.7z M229.875,219.7h-9.997v-10h9.997V219.7z"/>
		</g>
	</g>
</g>
<g id="doc_x5F_html_2_" display="none">
	<g id="doc_x5F_html" display="inline">
		<g>
			<path fill-rule="evenodd" clip-rule="evenodd" d="M249.896,159.833h-200v100h200V159.833z M79.893,219.833h-9.997v-10h9.997
				V219.833z M89.893,229.833h-9.997v-10h9.997V229.833z M89.893,209.833h-9.997v-10h9.997V209.833z M99.893,239.833h-9.997v-10
				h9.997V239.833z M99.893,199.833h-9.997v-10h9.997V199.833z M209.896,239.833h-9.997v-10h9.997V239.833z M209.896,199.833h-9.997
				v-10h9.997V199.833z M219.896,229.833h-9.997v-10h9.997V229.833z M219.896,209.833h-9.997v-10h9.997V209.833z M229.896,219.833
				h-9.997v-10h9.997V219.833z M249.896,49.833h-160v100h20v-80h120v60h60v160h-180v-20h-20v40h220v-200L249.896,49.833z
				 M249.896,109.833V78.117l31.716,31.716H249.896z"/>
		</g>
	</g>
</g>
<g id="doc_x5F_404_2_" display="none">
	<g id="doc_x5F_404" display="inline">
		<g>
			<path fill-rule="evenodd" clip-rule="evenodd" d="M250,159.925H50v100h200V159.925z M109.998,239.925H100v-20H70v-40h9.998v30
				H100v-30h9.998V239.925z M129.998,229.925H120v-40h9.998V229.925z M150,239.925h-20v-10h20V239.925z M150,189.925h-20v-10h20
				V189.925z M160,229.925h-9.998v-40H160V229.925z M209.997,239.925H200v-20h-30v-40h9.998v30H200v-30h9.997V239.925z M250,49.925
				H90v100h20v-80h120v60h60v160H110v-20H90v40h220v-200L250,49.925z M250,109.925V78.209l31.716,31.716H250z"/>
		</g>
	</g>
</g>
<g id="folder_2_" display="none">
	<g id="folder" display="inline">
		<g>
			<path fill-rule="evenodd" clip-rule="evenodd" d="M269.924,69.839v-20h-220v260h220V199.276l0.36,0.36l39.64-39.64V69.839
				H269.924z M249.924,289.839h-180v-220h180V289.839z M289.924,151.713l-20,20V89.839h20V151.713z"/>
		</g>
	</g>
</g>
<g id="folder_open_2_" display="none">
	<g id="folder_open" display="inline">
		<g>
			<path fill-rule="evenodd" clip-rule="evenodd" d="M269.948,45.292v-20h-220v260.72l180,48.23v-48.95h40V174.729l0.36,0.36
				l39.64-39.64V45.292H269.948z M69.948,270.665V52.871l140,37.513v217.794L69.948,270.665z M249.948,265.292h-20V75.037
				L118.939,45.292h131.009V265.292z M289.948,127.165l-20,20V65.292h20V127.165z"/>
		</g>
	</g>
</g>
<g id="sorting_desc_2_" display="none">
	<g id="sorting_desc" display="inline">
		<g>
			<path fill-rule="evenodd" clip-rule="evenodd" d="M53.938,271.094h170v-30h-170V271.094z M53.938,221.094h170v-30h-170V221.094z
				 M53.938,171.094h170v-30h-170V171.094z M263.438,58.667l-42.427,42.427h32.927v200h20v-200h31.927L263.438,58.667z"/>
		</g>
	</g>
</g>
<g id="sorting_asc_2_" display="none">
	<g id="sorting_asc" display="inline">
		<g>
			<path fill-rule="evenodd" clip-rule="evenodd" d="M136.021,88.917v30h170v-30H136.021z M136.021,168.917h170v-30h-170V168.917z
				 M136.021,218.917h170v-30h-170V218.917z M106.021,58.917h-20v200H54.094l42.427,42.426l42.426-42.426h-32.926V58.917z"/>
		</g>
	</g>
</g>
<g id="close_1_" display="none">
	<g id="close-icon" display="inline">
		<g>
			<polygon fill-rule="evenodd" clip-rule="evenodd" points="271.893,116.34 243.608,88.056 179.969,151.695 116.329,88.056 
				88.045,116.34 151.685,179.979 88.045,243.619 116.329,271.903 179.969,208.264 243.608,271.903 271.893,243.619 
				208.253,179.979 			"/>
		</g>
	</g>
</g>
<g id="search_1_" display="none">
	<g id="search-icon" display="inline">
		<g>
			<path fill-rule="evenodd" clip-rule="evenodd" d="M299.159,269.655l-36.107-36.107c29.904-43.615,25.512-103.676-13.235-142.424
				c-43.739-43.738-114.653-43.738-158.392,0c-43.739,43.739-43.739,114.653,0,158.393c38.574,38.574,98.275,43.106,141.84,13.642
				l36.196,36.195c2.733,2.734,7.165,2.734,9.899,0l19.799-19.799C301.893,276.821,301.893,272.389,299.159,269.655z
				 M226.058,225.758c-30.617,30.616-80.257,30.616-110.875,0c-30.617-30.617-30.617-80.258,0-110.875s80.257-30.617,110.875,0
				S256.675,195.141,226.058,225.758z"/>
		</g>
	</g>
</g>
<g id="reports_1_" display="none">
	<g id="reports_icon" display="inline">
		<g>
			<path fill-rule="evenodd" clip-rule="evenodd" d="M90,269.984h140v-20H90V269.984z M90,229.984h140v-20H90V229.984z M250,29.984
				H90v30h20v-10h120v20l20,20V58.269l31.716,31.716H250l20,20h20v160h-10v20h30v-200L250,29.984z M90,189.984h120v-20H90V189.984z
				 M50,69.984v260h220v-200l-60-60H50z M250,309.984H70v-220h120v60h60V309.984z M210,129.984V98.269l31.716,31.716H210z"/>
		</g>
	</g>
</g>
<g id="tools_1_" display="none">
	<g id="tools-icon" display="inline">
		<g>
			<path fill-rule="evenodd" clip-rule="evenodd" d="M277.036,241.432l1.377,1.302C276.676,241.383,276.418,241.003,277.036,241.432
				L164.157,134.704l5.125-36.683l-40.788-33.187l-18.075,3.944l-2.622,2.619l31.962,36.022l-6.598,30.187l-30.211,6.593
				l-36.052-31.936l-2.622,2.619l-3.948,18.061l33.214,40.755l36.712-5.121L237.07,281.364c-0.429-0.617-0.049-0.359,1.304,1.376
				l-1.304-1.376c2.037,2.935,22.386,25.682,44.027,4.059C302.738,263.799,279.973,243.467,277.036,241.432z M267.643,271.811
				l-9.189,2.461l-6.728-6.723l2.462-9.182l9.19-2.461l6.727,6.722L267.643,271.811z M100.205,248.1L81.37,262.021l-10.646,22.11
				l9.827,9.827l22.11-10.646l13.921-18.835l48.354-48.354L149.004,199.3L100.205,248.1z M257.724,77.924l4.095,4.094
				l-69.226,69.226l4.21,3.979l69.109-69.11l4.095,4.095l-68.995,68.995l4.209,3.98l68.881-68.881l4.095,4.094l-68.767,68.767
				l4.209,3.979l68.652-68.651l4.094,4.095l-68.537,68.537l7.667,7.249l58.406-55.313c-0.715,0.496-0.417,0.057,1.594-1.51
				l-1.594,1.51c3.398-2.359,29.742-25.925,4.7-50.987c-25.043-25.063-48.589,1.302-50.946,4.703l1.508-1.595
				c-1.564,2.012-2.004,2.311-1.508,1.595l-56.458,59.713l7.167,6.776L257.724,77.924z"/>
		</g>
	</g>
</g>
<g id="users_1_" display="none">
	<g id="users-icon" display="inline">
		<g>
			<path fill-rule="evenodd" clip-rule="evenodd" d="M276.583,208.884l-24.722-6.625c-0.283-0.075-0.537-0.205-0.755-0.375
				c-0.07-0.011-0.141-0.022-0.212-0.033l-0.018-0.185c-0.487-0.517-0.709-1.262-0.512-1.998l-0.338-3.178
				c9.845-10.646,16.512-30.284,16.512-48.311c0-26.401-14.3-35.112-31.94-35.112c-5.045,0-9.814,0.717-14.058,2.352
				c2.765,6.328,4.329,14.285,4.329,24.178c0,16.812-4.494,34.708-11.779,48.531c1.875,3.213,3.954,6.088,6.197,8.492l-0.323,3.048
				c0.195,0.732-0.021,1.473-0.503,1.988l-0.019,0.195c-0.074,0.011-0.148,0.023-0.224,0.034c-0.216,0.169-0.469,0.298-0.751,0.373
				l-12.246,3.282c0.216,0.13,0.444,0.243,0.701,0.312l31.911,8.551c21.301,8.722,36.479,21.237,40.877,31.401
				c30.352-2.374,30.558-7.104,30.558-8.22C309.27,229.241,296.312,216.961,276.583,208.884z M122.104,214.403l31.912-8.551
				c0.256-0.068,0.485-0.182,0.701-0.312l-12.247-3.282c-0.281-0.075-0.534-0.204-0.751-0.373c-0.075-0.011-0.149-0.023-0.224-0.034
				l-0.019-0.195c-0.481-0.516-0.698-1.256-0.502-1.988l-0.324-3.048c2.244-2.404,4.322-5.279,6.198-8.492
				c-7.286-13.823-11.78-31.72-11.78-48.531c0-9.893,1.564-17.85,4.329-24.178c-4.242-1.635-9.012-2.352-14.058-2.352
				c-17.64,0-31.94,8.711-31.94,35.112c0,18.026,6.667,37.664,16.511,48.311l-0.337,3.178c0.197,0.736-0.024,1.481-0.512,1.998
				l-0.018,0.185c-0.071,0.011-0.141,0.022-0.212,0.033c-0.217,0.17-0.471,0.3-0.754,0.375l-24.722,6.625
				c-19.728,8.077-32.686,20.357-32.686,28.701c0,1.115,0.206,5.846,30.558,8.22C85.625,235.641,100.803,223.125,122.104,214.403z
				 M234.285,217.134l-31.911-8.551c-0.365-0.098-0.693-0.266-0.974-0.484c-0.092-0.014-0.182-0.029-0.273-0.043l-0.022-0.238
				c-0.63-0.666-0.916-1.628-0.661-2.578l-0.436-4.103c12.706-13.743,21.313-39.091,21.313-62.359
				c0-34.079-18.459-45.324-41.229-45.324c-22.77,0-41.229,11.245-41.229,45.324c0,23.362,8.675,48.822,21.466,62.526l-0.418,3.936
				c0.253,0.944-0.027,1.9-0.648,2.566l-0.024,0.251c-0.097,0.015-0.192,0.03-0.289,0.045c-0.279,0.218-0.606,0.384-0.969,0.481
				l-31.861,8.537c-25.484,10.427-42.226,26.287-42.226,37.062c0,1.941,0.463,12.378,96.291,12.378
				c95.833,0,96.293-10.437,96.293-12.378C276.478,243.412,259.751,227.561,234.285,217.134z"/>
		</g>
	</g>
</g>
<g id="mdoules_1_" display="none">
	<g id="mdoules-icon" display="inline">
		<g>
			<path fill-rule="evenodd" clip-rule="evenodd" d="M195.768,152.148l21.372-28.186l-16.498-16.499l-34.715,26.322l-5.563-3.211
				l-5.802-42.198h-23.333l-5.803,42.205l-5.556,3.208l-34.72-26.326L68.65,123.963l21.384,28.201v12.313l-40.471,5.564v23.333
				l40.471,5.564v12.313L68.65,239.454l16.499,16.499l34.975-26.52l5.25,3.031l5.854,42.575h23.333l5.853-42.567l5.257-3.035
				l34.97,26.516l16.498-16.499l-21.372-28.186v-12.33l40.459-5.563v-23.333l-40.459-5.563V152.148z M169.332,196.8l-26.434,15.262
				L116.464,196.8v-30.522l26.434-15.262l26.434,15.262V196.8z M309.984,137.479v-11.666l-13.949-1.918
				c-0.847-3.544-2.251-6.868-4.121-9.876l8.527-11.246l-8.25-8.249l-11.282,8.555c-2.995-1.837-6.304-3.21-9.823-4.036
				l-1.934-14.063h-11.667l-1.938,14.096c-3.496,0.837-6.781,2.216-9.757,4.051l-11.345-8.603l-8.25,8.249l8.602,11.345
				c-1.836,2.976-3.216,6.261-4.053,9.758l-14.092,1.938v11.666l14.057,1.934c0.826,3.521,2.2,6.831,4.038,9.829l-8.552,11.277
				l8.25,8.249l11.241-8.523c3.009,1.871,6.336,3.276,9.881,4.123l1.917,13.944h11.667l1.912-13.912
				c3.569-0.835,6.92-2.234,9.949-4.107l11.178,8.476l8.25-8.249l-8.477-11.179c1.872-3.029,3.271-6.38,4.104-9.948L309.984,137.479
				z M263.388,149.176c-9.642,0-17.458-7.816-17.458-17.458c0-9.643,7.816-17.458,17.458-17.458s17.458,7.815,17.458,17.458
				C280.846,141.359,273.029,149.176,263.388,149.176z"/>
		</g>
	</g>
</g>
<g id="elements_1_" display="none">
	<g id="elements_icon" display="inline">
		<g>
			<path fill-rule="evenodd" clip-rule="evenodd" d="M193.688,196.716l-20.47,28.282c-1.659,1.656-4.731,1.272-6.863-0.857
				l-2.547-2.544c-0.009-0.01-0.02-0.016-0.028-0.025l-25.737-25.712c-0.009-0.009-0.016-0.02-0.025-0.028l-2.547-2.545
				c-2.132-2.13-2.516-5.2-0.858-6.856l28.31-20.45l-27.512-27.485l-30.809,30.778l-0.004-0.002l-20.889-28.861
				c-1.382-1.381-3.942-1.062-5.719,0.714l-25.737,25.712c-1.777,1.775-2.097,4.333-0.715,5.714l28.889,20.869l0.003,0.004
				L49.62,224.201l30.809,30.779l20.886-28.857c1.382-1.381,3.942-1.062,5.719,0.714l25.737,25.712
				c1.777,1.775,2.097,4.333,0.715,5.714l-28.885,20.866l30.809,30.779l30.809-30.779l20.886,28.857
				c1.382,1.381,3.942,1.061,5.72-0.714l25.736-25.712c1.777-1.775,2.097-4.334,0.715-5.714l-28.885-20.866l30.809-30.779
				L193.688,196.716z M279.24,104.657l0.003-0.004l28.89-20.869c1.382-1.381,1.062-3.938-0.715-5.714l-25.737-25.712
				c-1.776-1.775-4.337-2.095-5.719-0.715l-20.89,28.861l-0.004,0.003L224.26,49.729l-30.809,30.779l0.003,0.004l28.889,20.869
				c1.382,1.381,1.063,3.938-0.715,5.714l-25.737,25.712c-1.776,1.775-4.337,2.095-5.719,0.714l-20.889-28.861l-0.004-0.002
				l-30.809,30.778l30.809,30.779l-28.885,20.866c-1.382,1.381-1.062,3.939,0.715,5.714l25.737,25.712
				c1.777,1.775,4.337,2.096,5.719,0.715l20.886-28.857l30.809,30.779l30.809-30.779l-28.885-20.866
				c-1.382-1.381-1.063-3.938,0.715-5.714l25.736-25.712c1.777-1.775,4.338-2.095,5.72-0.715l20.886,28.857l30.81-30.779
				L279.24,104.657z"/>
		</g>
	</g>
</g>
<g id="site_1_" display="none">
	<g id="site-icon" display="inline">
		<g>
			<path fill-rule="evenodd" clip-rule="evenodd" d="M240.045,214.577c0-14.772-3.385-28.769-9.416-41.255
				c-7.893-16.381-20.355-30.139-35.725-39.648c-14.516-9.001-31.61-14.215-49.904-14.215c-18.375,0-35.54,5.263-50.097,14.338
				c-15.279,9.505-27.672,23.212-35.531,39.523c-6.032,12.487-9.417,26.483-9.417,41.257c0,52.442,42.648,95.109,95.052,95.109
				C197.41,309.687,240.045,267.02,240.045,214.577z M171.927,179.379c0.536,1.823,1.704,3.834,3.526,6.083l0.73,0.998
				c0.305,0.417,0.699,0.871,1.079,1.317c-1.094-0.305-2.485-0.655-4.22-1.034l-2.381-7.253
				C171.146,179.476,171.563,179.431,171.927,179.379z M162.983,181.105l2.53,4.052l-0.201,0.021l-1.071,0.842
				c-0.804,0.655-6.853,0.417-8.996-0.462c-0.059-0.32-0.164-0.774-0.282-1.295l1.183,0.878l1.607-0.268
				C160.446,184.427,162.165,182.677,162.983,181.105z M145,299.314c-19.755,0-38.571-6.791-53.683-19.241
				c0.751-0.477,1.354-0.924,1.726-1.236l1.987-1.667l-1.764-5.317l2.567-8.102l0.208-1.288c0-3.082-1.221-6.657-4.487-7.297
				c-0.372-0.149-1.332-1.668-1.905-2.07c-1.622-1.191-2.909-2.934-4.486-2.934h-0.015c-0.29,0-1.108,0.461-1.607,0.134
				c-0.438-0.283-1.019-0.193-1.644-0.507c-0.373-0.171-0.997-0.268-0.916-0.148c-0.603-0.886-1.414-2.174-2.15-4.051
				c-0.587-1.639-1.108-2.449-3.869-5.555c-1.816-2.063-2.247-2.51-3.922-3.299l-0.706-0.32c-0.707-0.35-1.168-0.707-1.63-1.035
				c-0.722-0.521-1.622-1.176-2.924-1.704c-1.093-0.455-1.443-0.724-2.507-1.617c-0.379-0.342-0.826-0.729-1.369-1.079
				c-1.049-5.369-1.584-10.879-1.584-16.403l0.015-1.058c0.84-2.182,1.614-5.875,1.243-7.752c-0.023-0.477,0.275-1.951,0.453-2.829
				c0.313-1.541,0.581-3.068,0.551-3.813c0.164-0.641,1.294-2.383,1.897-3.307c0.804-1.236,1.488-2.383,1.8-3.142
				c0.32-0.782,2.076-3.485,3.141-5.108l1.763-2.777c0.469-0.723,1.54-2.442,1.131-4.334c2.001-1.415,4.583-3.254,4.918-3.537
				c0.41-0.409,3.854-4.178,0.328-10.723c-0.111-0.208,1.213-0.38,1.161-0.469c0.297-0.551,2.091-1.452,2.091-2.65v-0.283
				c0-2.331,0.907-4.147,2.954-4.147h1.265c0.454,0,0.907-1.341,1.324-1.415l3.11,0.76l6.436-2.719l0.685-1.43
				c0.007-0.007,0.684-1.317,2.12-2.337c2.136-1.534,2.783-2.502,3.78-4.155l-3.058-2.294l3.602,1.624
				c0.424-0.41,1.265-3.225,3.459-5.585c1.346-1.444,2.378-2.832,3.039-3.832c0.924-0.425,1.849-0.846,2.79-1.238l0.741,0.468
				c0.262-0.29,1.165-0.72,2.068-1.575c9.295-3.491,19.358-5.414,29.874-5.414c5.636,0,11.14,0.563,16.469,1.609
				c-1.814,0.174-3.614,0.993-6.231,2.246c-0.7,0.335-1.324,0.774-1.696,0.9c-0.662,0.157-1.652,0.626-2.693,1.095
				c-0.633,0.276-1.808,0.826-1.942,0.886c-2.597,0-4.836,2.146-6.623,4.482c-2.231,4.066-1.688,6.516-0.974,7.715l1.466,2.592
				h1.057c-1.384,0-2.671,2.024-3.475,2.725l-3.847-4.75l-3.638-7.67l-6.354,5.487v2.845l-3.891-1.333l-3.943,8.236l5.618,7.758
				l2.231-1.966v0.536l3.572-0.908c-0.089,0.901-0.268,1.788,0.03,2.606l-10.439,2.427l0.9,3.888
				c0.156,0.625,0.193,1.854,0.253,2.592c-1.436,5.688-0.142,7.424,0.372,8.086l0.937,1.035c-1.316,1.333-2.188,2.822-2.626,3.552
				c-0.587,0.692-1.674,1.921-1.905,3.738c-0.342,0.432-1.101,1.131-1.645,1.496l-0.692,0.425c-2.5,1.533-4.836,3.067-6.02,5.033
				c-1.473,2.479-2.396,4.654-2.753,6.464c-0.401,2.025-0.401,3.604-0.401,5.986c0,0.729-0.037,1.355-0.075,1.936
				c-0.075,1.267-0.164,2.577,0.126,4.289c0.61,3.648,5.633,10.209,5.699,10.291c1.57,1.967,3.43,4.17,5.588,5.451
				c1.109,0.67,2.552,1.861,3.147,2.367c1.429,1.683,4.762,3.136,8.021,1.892c0.915-0.35,1.838-0.521,2.731-0.737
				c1.644-0.365,3.519-0.767,5.364-1.81c0.424-0.245,0.803-0.469,1.153-0.625c1.429,2.368,4.353,3.544,7.314,2.569l0.059-0.023
				c0.104,0.611,0.194,1.17,0.291,1.698c0.111,0.521,0.201,0.969,0.193,1.869c-0.059,1.295-0.179,3.716,1.793,5.696
				c0.387,0.388,0.968,0.849,1.592,1.37c0.261,0.208,0.662,0.521,0.968,0.797c0.126,1.63,0.468,4.356,1.324,6.062
				c0.409,0.796,0.513,1.414,0.662,1.139c-0.722,1.438-2.15,5.331-2.292,5.823c-0.885,3.977-0.379,5.495-0.223,5.927
				c0.618,1.906,1.778,3.693,3.542,5.451c0.216,0.216,0.313,0.528,0.521,1.303c0.246,0.879,0.573,2.085,1.406,3.21
				c0.335,0.469,1.109,2.419,1.488,3.604l0.476,2.65l-0.008,7.356l4.36-0.617c0,0,7.15-1.05,8.542-1.4
				c1.622-0.417,7.113-2.956,9.092-4.922c1.004-1.013,1.48-1.943,1.8-2.569c0.261-0.483,0.291-0.543,0.543-0.766
				c1.629-1.297,4.591-3.575,4.591-3.575l1.614-1.235l-0.355-5.563l2.736-3.687l2.33-2.383c-0.543,1.318-1.235,3.023-1.488,4.021
				c-0.462,1.816-0.156,4.006,1.295,5.838l1.688,1.058h1.853l1.361,0.506c1.422-0.462,2.537-1.162,3.646-2.219
				c0.334-0.32,0.654-0.462,0.855-0.618c2.083-1.37,4.092-4.878,4.576-6.754l1.316-4.877c0.38-1.519,0.767-4.445,0.767-5.838
				c0-1.378-0.364-2.904-0.438-3.202l-2.382-9.627l-6.666,12.531c-0.982,0.477-1.682,0.916-2.313,1.378
				c0.007-0.581-0.045-1.05-0.113-1.296c-0.163-0.641-0.498-3.597-0.795-6.3c0.476-0.99,1.094-2.145,1.443-2.636
				c0.625-0.834,0.982-1.668,1.265-2.323c0.342-0.789,0.514-1.162,1.064-1.639c2.053-1.697,3.422-3.589,4.435-4.966l0.796-1.065
				c1.086-1.43,2.79-3.723,3.348-4.602c0.938-1.399,1.585-3.901,1.883-5.25l1.213-5.502l-4.562,0.76
				c0.543-0.276,1.042-0.529,1.377-0.76c0.268-0.179,0.729-0.446,1.257-0.737c2.084-1.169,3.631-2.07,4.599-3.038l2.046-1.489
				c1.794-1.184,4.025-2.674,4.301-5.242c0.401,0.313,0.818,0.61,1.31,0.834c0.327,0.208,1.109,1.072,1.741,1.861
				c0.477,1.117,1.659,3.925,1.905,4.907c0.17,0.663,0.662,1.898,1.205,3.188c0.417,0.975,0.878,2.003,0.975,2.092
				c0,0.864,0.387,3.44,1.823,5.078C223.177,267.444,187.73,299.314,145,299.314z M146.213,177.726c-0.03,0-0.097,0.015-0.12,0.015
				c-0.356-0.074-1.488-0.439-2.373-0.789l-0.856-0.335l-0.907,0.082c-0.32,0.045-0.79,0.104-1.31,0.163
				c0.029-0.045,0.104-0.163,0.126-0.186c0.267-0.402,0.52-0.782,1.547-1.109c1.882-0.633,2.895-1.512,3.244-1.966
				c0.543-0.172,1.83-0.433,2.865-0.597l1.599,1.058c0.476,0.566,1.146,1.191,2.114,1.802l-6.087,1.735L146.213,177.726z M250,49.5
				H90v70.626c6.294-3.676,12.986-6.734,20-9.106V69.5h120v60h60v160h-65.612c-7.43,7.861-16.01,14.615-25.478,20H310v-200L250,49.5
				z M250,109.5V77.784l31.716,31.716H250z"/>
		</g>
	</g>
</g>
<g id="current-user_2_" display="none">
	<g id="current-user" display="inline">
		<g>
			<path fill-rule="evenodd" clip-rule="evenodd" d="M180,49.833c-71.797,0-130,58.203-130,130s58.203,130,130,130
				s130-58.203,130-130S251.797,49.833,180,49.833z M180,283.833c-57.438,0-104-46.563-104-104s46.563-104,104-104
				s104,46.563,104,104S237.438,283.833,180,283.833z M229.546,215.328l-29.22-7.829c-0.334-0.09-0.635-0.243-0.891-0.444
				c-0.084-0.013-0.167-0.026-0.251-0.039l-0.021-0.218c-0.576-0.61-0.838-1.49-0.605-2.361l-0.398-3.756
				c11.634-12.583,19.515-35.792,19.515-57.098c0-31.204-16.901-41.5-37.75-41.5c-20.849,0-37.75,10.296-37.75,41.5
				c0,21.392,7.943,44.703,19.655,57.251l-0.383,3.603c0.232,0.865-0.024,1.741-0.593,2.351l-0.022,0.229
				c-0.089,0.014-0.176,0.028-0.265,0.041c-0.256,0.199-0.555,0.353-0.888,0.441l-29.172,7.816
				c-11.682,4.779-21.356,10.806-28.106,16.871c16.822,24.886,45.3,41.247,77.6,41.247c32.305,0,60.787-16.366,77.608-41.259
				C250.865,226.119,241.206,220.103,229.546,215.328z"/>
		</g>
	</g>
</g>
</svg>
