<?xml version="1.0" encoding="utf-8"?>
<!-- Generator: Adobe Illustrator 15.1.0, SVG Export Plug-In . SVG Version: 6.00 Build 0)  -->
<!DOCTYPE svg PUBLIC "-//W3C//DTD SVG 1.1//EN" "http://www.w3.org/Graphics/SVG/1.1/DTD/svg11.dtd">
<svg version="1.1" id="Слой_1" xmlns="http://www.w3.org/2000/svg" xmlns:xlink="http://www.w3.org/1999/xlink" x="0px" y="0px"
	 width="100px" height="100px" viewBox="0 0 100 100" enable-background="new 0 0 100 100" xml:space="preserve">
<g>
	<g>
		
			<linearGradient id="SVGID_1_" gradientUnits="userSpaceOnUse" x1="285.0469" y1="259.252" x2="249.5326" y2="236.1264" gradientTransform="matrix(1 0 0 1 -196 -231.4922)">
			<stop  offset="0" style="stop-color:#80C3E6"/>
			<stop  offset="1" style="stop-color:#3380C2"/>
		</linearGradient>
		<polygon fill="url(#SVGID_1_)" points="77.257,41.844 97.164,9.995 49.279,9.995 42.664,20.609 		"/>
		<polygon opacity="0.15" enable-background="new    " points="42.668,20.609 46.056,15.161 77.261,41.844 		"/>
		
			<linearGradient id="SVGID_2_" gradientUnits="userSpaceOnUse" x1="291.2783" y1="312.6572" x2="264.7308" y2="295.1259" gradientTransform="matrix(1 0 0 1 -196 -231.4922)">
			<stop  offset="0" style="stop-color:#F38649"/>
			<stop  offset="0.1849" style="stop-color:#F28147"/>
			<stop  offset="0.4091" style="stop-color:#EF7242"/>
			<stop  offset="0.6537" style="stop-color:#EA5A3A"/>
			<stop  offset="0.911" style="stop-color:#E4382E"/>
			<stop  offset="1" style="stop-color:#E12A29"/>
		</linearGradient>
		<polygon fill="url(#SVGID_2_)" points="87.787,99.587 87.787,51.708 77.457,45.25 55.734,79.562 		"/>
		<polygon opacity="0.15" enable-background="new    " points="55.734,79.56 61.102,82.909 77.457,45.25 		"/>
		
			<linearGradient id="SVGID_3_" gradientUnits="userSpaceOnUse" x1="203.8047" y1="275.209" x2="254.5929" y2="243.4729" gradientTransform="matrix(1 0 0 1 -196 -231.4922)">
			<stop  offset="0" style="stop-color:#42AB4A"/>
			<stop  offset="1" style="stop-color:#ADD155"/>
		</linearGradient>
		<polygon fill="url(#SVGID_3_)" points="10.665,0.413 10.665,48.294 21.744,54.751 77.25,41.838 		"/>
		
			<linearGradient id="SVGID_4_" gradientUnits="userSpaceOnUse" x1="214.8926" y1="332.0059" x2="256.1751" y2="265.9401" gradientTransform="matrix(1 0 0 1 -196 -231.4922)">
			<stop  offset="0" style="stop-color:#42AB4A"/>
			<stop  offset="1" style="stop-color:#ADD155"/>
		</linearGradient>
		<polygon fill="url(#SVGID_4_)" points="21.512,58.401 1.606,89.712 49.486,89.712 77.462,45.25 		"/>
	</g>
</g>
</svg>
