<?xml version="1.0" encoding="iso-8859-1"?>
<!-- Generator: Adobe Illustrator 16.0.0, SVG Export Plug-In . SVG Version: 6.00 Build 0)  -->
<!DOCTYPE svg PUBLIC "-//W3C//DTD SVG 1.1//EN" "http://www.w3.org/Graphics/SVG/1.1/DTD/svg11.dtd">
<svg version="1.1" id="Layer_1" xmlns="http://www.w3.org/2000/svg" xmlns:xlink="http://www.w3.org/1999/xlink" x="0px" y="0px"
	 width="103.786px" height="133.543px" viewBox="0 0 103.786 133.543" style="enable-background:new 0 0 103.786 133.543;"
	 xml:space="preserve">
<g>
	<g>
		<polygon points="102.472,9.583 54.558,9.583 49.39,18.015 83.843,39.549 		"/>
		<polygon points="82.552,41.453 16.226,0 16.226,47.914 26.563,54.374 		"/>
		<polygon points="62.102,81.295 91.907,100.018 91.907,52.105 83.638,46.841 		"/>
		<polygon points="25.581,58.565 5.662,90.436 53.575,90.436 81.569,45.645 		"/>
	</g>
	<g>
		<path d="M0,129.898h2.784l1.393-17.002H1.326v-3.281h7.655l5.237,13.289c0.397,1.16,0.563,1.957,0.563,1.957h0.065
			c0,0,0.166-0.797,0.597-1.957l5.203-13.289h7.656v3.281h-2.817l1.359,17.002h2.784v3.248h-9.645v-3.248h2.618l-0.862-11.865
			c-0.065-0.827,0.1-2.188,0.1-2.188h-0.1c0,0-0.265,1.293-0.563,2.088l-4.505,10.839h-3.712l-4.508-10.838
			c-0.298-0.795-0.53-2.088-0.53-2.088H7.789c0,0,0.165,1.359,0.1,2.188l-0.862,11.865h2.651v3.248H0V129.898z"/>
		<path d="M43.454,109.217c6.961,0,12.197,5.27,12.197,11.998c0,6.926-5.236,12.328-12.197,12.328
			c-6.959,0-12.196-5.402-12.196-12.328C31.258,114.486,36.495,109.217,43.454,109.217z M43.454,129.732
			c4.242,0,7.723-3.68,7.723-8.519c0-4.641-3.48-8.186-7.723-8.186s-7.723,3.545-7.723,8.186
			C35.731,126.053,39.212,129.732,43.454,129.732z"/>
		<path d="M57.808,129.898h2.817v-17.002h-2.817v-3.281h10.175c1.889,0,3.381,0.101,4.904,0.562
			c4.574,1.359,7.623,5.402,7.623,11.203c0,5.568-2.816,9.578-7.291,11.068c-1.592,0.564-3.248,0.697-5.203,0.697H57.808V129.898z
			 M67.817,129.667c1.49,0,2.684-0.134,3.844-0.597c2.687-1.094,4.375-3.846,4.375-7.688c0-3.978-1.789-6.695-4.541-7.756
			c-1.19-0.463-2.285-0.529-3.678-0.529h-2.85v16.57H67.817L67.817,129.667z"/>
		<path d="M83.006,129.898h2.089l5.932-8.685l-5.766-8.317h-2.089v-3.281h8.882v3.281h-2.318l3.246,4.871
			c0.433,0.53,0.664,0.994,0.664,0.994h0.065c0,0.032,0.232-0.431,0.63-0.994l3.147-4.871h-2.254v-3.281h8.551v3.281h-2.055
			l-5.965,8.649l5.865,8.353h2.088v3.248h-8.914v-3.248h2.32l-3.281-4.938c-0.432-0.562-0.664-1.027-0.664-1.027h-0.066
			c-0.066,0-0.264,0.465-0.629,1.027l-3.148,4.938h2.287v3.248h-8.617V129.898z"/>
	</g>
</g>
<g>
</g>
<g>
</g>
<g>
</g>
<g>
</g>
<g>
</g>
<g>
</g>
<g>
</g>
<g>
</g>
<g>
</g>
<g>
</g>
<g>
</g>
<g>
</g>
<g>
</g>
<g>
</g>
<g>
</g>
</svg>
